<?xml version="1.0" encoding="UTF-8" standalone="no"?><svg xmlns="http://www.w3.org/2000/svg" xmlns:xlink="http://www.w3.org/1999/xlink" contentScriptType="application/ecmascript" contentStyleType="text/css" height="513px" preserveAspectRatio="none" style="width:652px;height:513px;" version="1.1" viewBox="0 0 652 513" width="652px" zoomAndPan="magnify"><defs><filter height="300%" id="f4k9v558bw3hv" width="300%" x="-1" y="-1"><feGaussianBlur result="blurOut" stdDeviation="2.0"/><feColorMatrix in="blurOut" result="blurOut2" type="matrix" values="0 0 0 0 0 0 0 0 0 0 0 0 0 0 0 0 0 0 .4 0"/><feOffset dx="4.0" dy="4.0" in="blurOut2" result="blurOut3"/><feBlend in="SourceGraphic" in2="blurOut3" mode="normal"/></filter></defs><g><!--MD5=[14dcd1c6f0ba10ad7a0e543e42252a17]
class Solution--><rect fill="#FEFECE" filter="url(#f4k9v558bw3hv)" height="124.8281" id="Solution" style="stroke: #A80036; stroke-width: 1.5;" width="500" x="67" y="378"/><ellipse cx="287.25" cy="394" fill="#ADD1B2" rx="11" ry="11" style="stroke: #A80036; stroke-width: 1.0;"/><path d="M290.2188,399.6406 Q289.6406,399.9375 289,400.0781 Q288.3594,400.2344 287.6563,400.2344 Q285.1563,400.2344 283.8281,398.5938 Q282.5156,396.9375 282.5156,393.8125 Q282.5156,390.6875 283.8281,389.0313 Q285.1563,387.375 287.6563,387.375 Q288.3594,387.375 289,387.5313 Q289.6563,387.6875 290.2188,387.9844 L290.2188,390.7031 Q289.5938,390.125 289,389.8594 Q288.4063,389.5781 287.7813,389.5781 Q286.4375,389.5781 285.75,390.6563 Q285.0625,391.7188 285.0625,393.8125 Q285.0625,395.9063 285.75,396.9844 Q286.4375,398.0469 287.7813,398.0469 Q288.4063,398.0469 289,397.7813 Q289.5938,397.5 290.2188,396.9219 L290.2188,399.6406 Z "/><text fill="#000000" font-family="sans-serif" font-size="12" lengthAdjust="spacingAndGlyphs" textLength="51" x="307.75" y="398.1543">Solution</text><line style="stroke: #A80036; stroke-width: 1.5;" x1="68" x2="566" y1="410" y2="410"/><line style="stroke: #A80036; stroke-width: 1.5;" x1="68" x2="566" y1="418" y2="418"/><text fill="#000000" font-family="sans-serif" font-size="11" lengthAdjust="spacingAndGlyphs" text-decoration="underline" textLength="125" x="73" y="432.2104">+main(args : String[])</text><text fill="#000000" font-family="sans-serif" font-size="11" lengthAdjust="spacingAndGlyphs" text-decoration="underline" textLength="195" x="73" y="445.0151">+start(scanner : Scanner) : String</text><text fill="#000000" font-family="sans-serif" font-size="11" lengthAdjust="spacingAndGlyphs" text-decoration="underline" textLength="298" x="73" y="457.8198">~getDataFromFile(scanner : Scanner) : List&lt;String&gt;</text><text fill="#000000" font-family="sans-serif" font-size="11" lengthAdjust="spacingAndGlyphs" text-decoration="underline" textLength="246" x="73" y="470.6245">~constructResident(line : String) : Resident</text><text fill="#000000" font-family="sans-serif" font-size="11" lengthAdjust="spacingAndGlyphs" text-decoration="underline" textLength="488" x="73" y="483.4292">~getHouseholds(residents : List&lt;Resident&gt;) : SortedMap&lt;Address, List&lt;Resident&gt;&gt;</text><text fill="#000000" font-family="sans-serif" font-size="11" lengthAdjust="spacingAndGlyphs" text-decoration="underline" textLength="488" x="73" y="496.2339">~getHouseholdsDisplay(households : SortedMap&lt;Address, List&lt;Resident&gt;&gt;) : String</text><!--MD5=[0f39e4cb6f03951afbf6d14bd2505654]
class Address--><rect fill="#FEFECE" filter="url(#f4k9v558bw3hv)" height="176.0469" id="Address" style="stroke: #A80036; stroke-width: 1.5;" width="312" x="329" y="129"/><ellipse cx="455.25" cy="145" fill="#ADD1B2" rx="11" ry="11" style="stroke: #A80036; stroke-width: 1.0;"/><path d="M458.2188,150.6406 Q457.6406,150.9375 457,151.0781 Q456.3594,151.2344 455.6563,151.2344 Q453.1563,151.2344 451.8281,149.5938 Q450.5156,147.9375 450.5156,144.8125 Q450.5156,141.6875 451.8281,140.0313 Q453.1563,138.375 455.6563,138.375 Q456.3594,138.375 457,138.5313 Q457.6563,138.6875 458.2188,138.9844 L458.2188,141.7031 Q457.5938,141.125 457,140.8594 Q456.4063,140.5781 455.7813,140.5781 Q454.4375,140.5781 453.75,141.6563 Q453.0625,142.7188 453.0625,144.8125 Q453.0625,146.9063 453.75,147.9844 Q454.4375,149.0469 455.7813,149.0469 Q456.4063,149.0469 457,148.7813 Q457.5938,148.5 458.2188,147.9219 L458.2188,150.6406 Z "/><text fill="#000000" font-family="sans-serif" font-size="12" lengthAdjust="spacingAndGlyphs" textLength="51" x="475.75" y="149.1543">Address</text><line style="stroke: #A80036; stroke-width: 1.5;" x1="330" x2="640" y1="161" y2="161"/><text fill="#000000" font-family="sans-serif" font-size="11" lengthAdjust="spacingAndGlyphs" textLength="84" x="335" y="175.2104">-street : String</text><text fill="#000000" font-family="sans-serif" font-size="11" lengthAdjust="spacingAndGlyphs" textLength="109" x="335" y="188.0151">-apartment : String</text><text fill="#000000" font-family="sans-serif" font-size="11" lengthAdjust="spacingAndGlyphs" textLength="69" x="335" y="200.8198">-city : String</text><text fill="#000000" font-family="sans-serif" font-size="11" lengthAdjust="spacingAndGlyphs" textLength="79" x="335" y="213.6245">-state : String</text><line style="stroke: #A80036; stroke-width: 1.5;" x1="330" x2="640" y1="220.2188" y2="220.2188"/><text fill="#000000" font-family="sans-serif" font-size="11" lengthAdjust="spacingAndGlyphs" textLength="300" x="335" y="234.4292">+Address(street : String, city : String, state : String)</text><text fill="#000000" font-family="sans-serif" font-size="11" lengthAdjust="spacingAndGlyphs" textLength="170" x="335" y="247.2339">+Address(address : Address)</text><text fill="#000000" font-family="sans-serif" font-size="11" lengthAdjust="spacingAndGlyphs" textLength="190" x="335" y="260.0386">+equals(other : Object) : boolean</text><text fill="#000000" font-family="sans-serif" font-size="11" lengthAdjust="spacingAndGlyphs" textLength="126" x="335" y="272.8433">+hashCode() : integer</text><text fill="#000000" font-family="sans-serif" font-size="11" lengthAdjust="spacingAndGlyphs" textLength="108" x="335" y="285.6479">+toString() : String</text><text fill="#000000" font-family="sans-serif" font-size="11" lengthAdjust="spacingAndGlyphs" textLength="222" x="335" y="298.4526">+compareTo(other : Address) : integer</text><!--MD5=[7a4729d26b999f6a4650b01106c103c5]
class Comparable--><rect fill="#FEFECE" filter="url(#f4k9v558bw3hv)" height="48" id="Comparable" style="stroke: #A80036; stroke-width: 1.5;" width="107" x="263.5" y="8"/><ellipse cx="278.5" cy="24" fill="#B4A7E5" rx="11" ry="11" style="stroke: #A80036; stroke-width: 1.0;"/><path d="M274.4219,19.7656 L274.4219,17.6094 L281.8125,17.6094 L281.8125,19.7656 L279.3438,19.7656 L279.3438,27.8438 L281.8125,27.8438 L281.8125,30 L274.4219,30 L274.4219,27.8438 L276.8906,27.8438 L276.8906,19.7656 L274.4219,19.7656 Z "/><text fill="#000000" font-family="sans-serif" font-size="12" font-style="italic" lengthAdjust="spacingAndGlyphs" textLength="75" x="292.5" y="28.1543">Comparable</text><line style="stroke: #A80036; stroke-width: 1.5;" x1="264.5" x2="369.5" y1="40" y2="40"/><line style="stroke: #A80036; stroke-width: 1.5;" x1="264.5" x2="369.5" y1="48" y2="48"/><!--MD5=[d0c96a3d64faa957ffb813c39ccbadf8]
class Resident--><rect fill="#FEFECE" filter="url(#f4k9v558bw3hv)" height="201.6563" id="Resident" style="stroke: #A80036; stroke-width: 1.5;" width="288" x="6" y="116"/><ellipse cx="118.25" cy="132" fill="#ADD1B2" rx="11" ry="11" style="stroke: #A80036; stroke-width: 1.0;"/><path d="M121.2188,137.6406 Q120.6406,137.9375 120,138.0781 Q119.3594,138.2344 118.6563,138.2344 Q116.1563,138.2344 114.8281,136.5938 Q113.5156,134.9375 113.5156,131.8125 Q113.5156,128.6875 114.8281,127.0313 Q116.1563,125.375 118.6563,125.375 Q119.3594,125.375 120,125.5313 Q120.6563,125.6875 121.2188,125.9844 L121.2188,128.7031 Q120.5938,128.125 120,127.8594 Q119.4063,127.5781 118.7813,127.5781 Q117.4375,127.5781 116.75,128.6563 Q116.0625,129.7188 116.0625,131.8125 Q116.0625,133.9063 116.75,134.9844 Q117.4375,136.0469 118.7813,136.0469 Q119.4063,136.0469 120,135.7813 Q120.5938,135.5 121.2188,134.9219 L121.2188,137.6406 Z "/><text fill="#000000" font-family="sans-serif" font-size="12" lengthAdjust="spacingAndGlyphs" textLength="55" x="138.75" y="136.1543">Resident</text><line style="stroke: #A80036; stroke-width: 1.5;" x1="7" x2="293" y1="148" y2="148"/><text fill="#000000" font-family="sans-serif" font-size="11" lengthAdjust="spacingAndGlyphs" textLength="106" x="12" y="162.2104">-firstName : String</text><text fill="#000000" font-family="sans-serif" font-size="11" lengthAdjust="spacingAndGlyphs" textLength="104" x="12" y="175.0151">-lastName : String</text><text fill="#000000" font-family="sans-serif" font-size="11" lengthAdjust="spacingAndGlyphs" textLength="110" x="12" y="187.8198">-address : Address</text><text fill="#000000" font-family="sans-serif" font-size="11" lengthAdjust="spacingAndGlyphs" textLength="77" x="12" y="200.6245">-age : integer</text><line style="stroke: #A80036; stroke-width: 1.5;" x1="7" x2="293" y1="207.2188" y2="207.2188"/><text fill="#000000" font-family="sans-serif" font-size="11" lengthAdjust="spacingAndGlyphs" textLength="276" x="12" y="221.4292">+Resident(firstName : String, lastName : String,</text><text fill="#000000" font-family="sans-serif" font-size="11" lengthAdjust="spacingAndGlyphs" textLength="191" x="12" y="234.2339">address : Address, age : integer)</text><text fill="#000000" font-family="sans-serif" font-size="11" lengthAdjust="spacingAndGlyphs" textLength="141" x="12" y="247.0386">+getAddress() : Address</text><text fill="#000000" font-family="sans-serif" font-size="11" lengthAdjust="spacingAndGlyphs" textLength="108" x="12" y="259.8433">+getAge() : integer</text><text fill="#000000" font-family="sans-serif" font-size="11" lengthAdjust="spacingAndGlyphs" textLength="224" x="12" y="272.6479">+compareTo(other : Resident) : integer</text><text fill="#000000" font-family="sans-serif" font-size="11" lengthAdjust="spacingAndGlyphs" textLength="190" x="12" y="285.4526">+equals(other : Object) : boolean</text><text fill="#000000" font-family="sans-serif" font-size="11" lengthAdjust="spacingAndGlyphs" textLength="126" x="12" y="298.2573">+hashCode() : integer</text><text fill="#000000" font-family="sans-serif" font-size="11" lengthAdjust="spacingAndGlyphs" textLength="108" x="12" y="311.062">+toString() : String</text><!--MD5=[dec5a20769a1c0bbfa8f4311f38711bc]
reverse link Comparable to Address--><path d="M351.95,71.07 C367.42,87.92 386.32,108.5 404.95,128.8 " fill="none" id="Comparable&lt;-Address" style="stroke: #A80036; stroke-width: 1.0; stroke-dasharray: 7.0,7.0;"/><polygon fill="none" points="346.65,75.64,338.28,56.18,356.96,66.18,346.65,75.64" style="stroke: #A80036; stroke-width: 1.0;"/><!--MD5=[8fdd648e04eec2fdca03a3914a0fe16d]
reverse link Comparable to Resident--><path d="M282.23,71.1 C270.12,84.37 255.9,99.96 241.35,115.9 " fill="none" id="Comparable&lt;-Resident" style="stroke: #A80036; stroke-width: 1.0; stroke-dasharray: 7.0,7.0;"/><polygon fill="none" points="277.2,66.23,295.85,56.18,287.54,75.67,277.2,66.23" style="stroke: #A80036; stroke-width: 1.0;"/><!--MD5=[7a928b9461fb49e4007aecd17e092c97]
reverse link Resident to Address--><path d="M307.53,217 C314.66,217 321.79,217 328.92,217 " fill="none" id="Resident&lt;-Address" style="stroke: #A80036; stroke-width: 1.0;"/><polygon fill="#A80036" points="294.27,217,300.27,221,306.27,217,300.27,213,294.27,217" style="stroke: #A80036; stroke-width: 1.0;"/><!--MD5=[aa076a4e16c429ba1d3411fb7e17ccbd]
reverse link Address to Solution--><path d="M415.8,309.23 C398.24,332.38 379.79,356.71 363.65,377.99 " fill="none" id="Address&lt;-Solution" style="stroke: #A80036; stroke-width: 1.0; stroke-dasharray: 7.0,7.0;"/><polygon fill="#A80036" points="418.84,305.22,410.21,309.9659,415.8149,309.2011,416.5798,314.806,418.84,305.22" style="stroke: #A80036; stroke-width: 1.0;"/><!--MD5=[528c9456e0a5a505f6af12595293cc40]
reverse link Resident to Solution--><path d="M228.69,322.37 C243.03,341.39 257.56,360.67 270.59,377.94 " fill="none" id="Resident&lt;-Solution" style="stroke: #A80036; stroke-width: 1.0; stroke-dasharray: 7.0,7.0;"/><polygon fill="#A80036" points="225.44,318.06,227.64,327.66,228.44,322.06,234.04,322.86,225.44,318.06" style="stroke: #A80036; stroke-width: 1.0;"/><!--MD5=[2b015fce42553d722496d90f26ccf885]
@startuml classDiagram
skinparam classAttributeIconSize 0
class Solution {
    + {static} main(args : String[])
    + {static} start(scanner : Scanner) : String
    ~ {static} getDataFromFile(scanner : Scanner) : List<String>
    ~ {static} constructResident(line : String) : Resident
    ~ {static} getHouseholds(residents : List<Resident>) : SortedMap<Address, List<Resident>>
    ~ {static} getHouseholdsDisplay(households : SortedMap<Address, List<Resident>>) : String
}
class Address implements Comparable {
    - street : String
    - apartment : String
    - city : String
    - state : String
    
    + Address(street : String, city : String, state : String)
    + Address(address : Address)
    + equals(other : Object) : boolean
    + hashCode() : integer
    + toString() : String
    + compareTo(other : Address) : integer
}

class Resident implements Comparable {
    - firstName : String
    - lastName : String
    - address : Address
    - age : integer
    
    + Resident(firstName : String, lastName : String,
                address : Address, age : integer)
    + getAddress() : Address
    + getAge() : integer
    + compareTo(other : Resident) : integer
    + equals(other : Object) : boolean
    + hashCode() : integer
    + toString() : String
}

Address -right-* Resident
Address <.. Solution
Resident <.. Solution
@enduml

PlantUML version 1.2020.02(Sun Mar 01 02:22:07 PST 2020)
(GPL source distribution)
Java Runtime: OpenJDK Runtime Environment
JVM: OpenJDK 64-Bit Server VM
Java Version: 11.0.21+9-post-Ubuntu-0ubuntu122.04
Operating System: Linux
Default Encoding: UTF-8
Language: en
Country: null
--></g></svg>